  0
SECTION
  2
HEADER
  9
$ACADVER
  1
AC1009
  9
$FILLMODE
 70
0
  9
$EXTMIN
 10
-6.0088
 20
-0.4675
 30
0.0000
  9
$EXTMAX
 10
34.6143
 20
24.5948
 30
0.0000
  0
ENDSEC
  0
SECTION
  2
TABLES
  0
TABLE
  2
LTYPE
 70
1
  0
LTYPE
  2
CONTINUOUS
 70
64
  3
Solid line
 72
65
 73
0
 40
0
  0
ENDTAB
  0
TABLE
  2
LAYER
 70
255
  0
LAYER
  2
17
 70
64
 62
82
  6
CONTINUOUS
  0
LAYER
  2
18
 70
64
 62
82
  6
CONTINUOUS
  0
LAYER
  2
20
 70
64
 62
7
  6
CONTINUOUS
  0
ENDTAB
  0
ENDSEC
  0
SECTION
  2
BLOCKS
  0
BLOCK
  8
0
  2
RECT
 70
64
 10
0.0000
 20
0.0000
 30
0.0000
  3
RECT
  0
SOLID
  8
0
 10
-0.5000
 20
-0.5000
 30
0.0000
 11
0.5000
 21
-0.5000
 31
0.0000
 12
-0.5000
 22
0.5000
 32
0.0000
 13
0.5000
 23
0.5000
 33
0.0000
  0
ENDBLK
  8
0
  0
BLOCK
  8
0
  2
PIE
 70
64
 10
0.0000
 20
0.0000
 30
0.0000
  3
PIE
  0
CIRCLE
  8
0
 10
0.0000
 20
0.0000
 30
0.0000
 40
0.5000
  0
ENDBLK
  8
0
  0
BLOCK
  8
0
  2
OCTAGONP
 70
64
 10
0.0000
 20
0.0000
 30
0.0000
  3
OCTAGONP
  0
POLYLINE
  8
0
 66
1
 10
0.0000
 20
0.0000
 30
0.0000
 40
0.0000
 41
0.0000
 70
1
  0
VERTEX
  8
0
 10
-0.5000
 20
-0.2071
 30
0.0000
  0
VERTEX
  8
0
 10
-0.5000
 20
0.2071
 30
0.0000
  0
VERTEX
  8
0
 10
-0.2071
 20
0.5000
 30
0.0000
  0
VERTEX
  8
0
 10
0.2071
 20
0.5000
 30
0.0000
  0
VERTEX
  8
0
 10
0.5000
 20
0.2071
 30
0.0000
  0
VERTEX
  8
0
 10
0.5000
 20
-0.2071
 30
0.0000
  0
VERTEX
  8
0
 10
0.2071
 20
-0.5000
 30
0.0000
  0
VERTEX
  8
0
 10
-0.2071
 20
-0.5000
 30
0.0000
  0
SEQEND
  8
0
  0
ENDBLK
  8
0
  0
BLOCK
  8
0
  2
SQUAREP
 70
64
 10
0.0000
 20
0.0000
 30
0.0000
  3
SQUAREP
  0
SOLID
  8
0
 10
-0.5000
 20
-0.5000
 30
0.0000
 11
0.5000
 21
-0.5000
 31
0.0000
 12
-0.5000
 22
0.5000
 32
0.0000
 13
0.5000
 23
0.5000
 33
0.0000
  0
ENDBLK
  8
0
  0
BLOCK
  8
0
  2
ROUNDP
 70
64
 10
0.0000
 20
0.0000
 30
0.0000
  3
ROUNDP
  0
CIRCLE
  8
0
 10
0.0000
 20
0.0000
 30
0.0000
 40
0.5000
  0
ENDBLK
  8
0
  0
BLOCK
  8
0
  2
ANNULUSP
 70
64
 10
0.0000
 20
0.0000
 30
0.0000
  3
ANNULUSP
  0
CIRCLE
  8
0
 10
0.0000
 20
0.0000
 30
0.0000
 40
0.5000
  0
ENDBLK
  8
0
  0
BLOCK
  8
0
  2
THERMALP
 70
64
 10
0.0000
 20
0.0000
 30
0.0000
  3
THERMALP
  0
LINE
  8
0
 10
-0.2379
 20
0.4500
 30
0.0000
 11
0.2379
 21
0.4500
 31
0.0000
  0
LINE
  8
0
 10
0.4500
 20
0.2379
 30
0.0000
 11
0.4500
 21
-0.2379
 31
0.0000
  0
LINE
  8
0
 10
0.2379
 20
-0.4500
 30
0.0000
 11
-0.2379
 21
-0.4500
 31
0.0000
  0
LINE
  8
0
 10
-0.4500
 20
-0.2379
 30
0.0000
 11
-0.4500
 21
0.2379
 31
0.0000
  0
ENDBLK
  8
0
  0
BLOCK
  8
0
  2
OCTAGONV
 70
64
 10
0.0000
 20
0.0000
 30
0.0000
  3
OCTAGONV
  0
POLYLINE
  8
0
 66
1
 10
0.0000
 20
0.0000
 30
0.0000
 40
0.0000
 41
0.0000
 70
1
  0
VERTEX
  8
0
 10
-0.5000
 20
-0.2071
 30
0.0000
  0
VERTEX
  8
0
 10
-0.5000
 20
0.2071
 30
0.0000
  0
VERTEX
  8
0
 10
-0.2071
 20
0.5000
 30
0.0000
  0
VERTEX
  8
0
 10
0.2071
 20
0.5000
 30
0.0000
  0
VERTEX
  8
0
 10
0.5000
 20
0.2071
 30
0.0000
  0
VERTEX
  8
0
 10
0.5000
 20
-0.2071
 30
0.0000
  0
VERTEX
  8
0
 10
0.2071
 20
-0.5000
 30
0.0000
  0
VERTEX
  8
0
 10
-0.2071
 20
-0.5000
 30
0.0000
  0
SEQEND
  8
0
  0
ENDBLK
  8
0
  0
BLOCK
  8
0
  2
SQUAREV
 70
64
 10
0.0000
 20
0.0000
 30
0.0000
  3
SQUAREV
  0
SOLID
  8
0
 10
-0.5000
 20
-0.5000
 30
0.0000
 11
0.5000
 21
-0.5000
 31
0.0000
 12
-0.5000
 22
0.5000
 32
0.0000
 13
0.5000
 23
0.5000
 33
0.0000
  0
ENDBLK
  8
0
  0
BLOCK
  8
0
  2
ROUNDV
 70
64
 10
0.0000
 20
0.0000
 30
0.0000
  3
ROUNDV
  0
CIRCLE
  8
0
 10
0.0000
 20
0.0000
 30
0.0000
 40
0.5000
  0
ENDBLK
  8
0
  0
BLOCK
  8
0
  2
ANNULUSV
 70
64
 10
0.0000
 20
0.0000
 30
0.0000
  3
ANNULUSV
  0
CIRCLE
  8
0
 10
0.0000
 20
0.0000
 30
0.0000
 40
0.5000
  0
ENDBLK
  8
0
  0
BLOCK
  8
0
  2
THERMALV
 70
64
 10
0.0000
 20
0.0000
 30
0.0000
  3
THERMALV
  0
LINE
  8
0
 10
-0.2379
 20
0.4500
 30
0.0000
 11
0.2379
 21
0.4500
 31
0.0000
  0
LINE
  8
0
 10
0.4500
 20
0.2379
 30
0.0000
 11
0.4500
 21
-0.2379
 31
0.0000
  0
LINE
  8
0
 10
0.2379
 20
-0.4500
 30
0.0000
 11
-0.2379
 21
-0.4500
 31
0.0000
  0
LINE
  8
0
 10
-0.4500
 20
-0.2379
 30
0.0000
 11
-0.4500
 21
0.2379
 31
0.0000
  0
ENDBLK
  8
0
  0
ENDSEC
  0
SECTION
  2
ENTITIES
  0
LINE
  8
20
 10
27.8625
 20
0.0000
 30
0.0000
 11
27.8625
 21
23.0000
 31
0.0000
  0
LINE
  8
20
 10
27.8625
 20
23.0000
 30
0.0000
 11
-0.1375
 21
23.0000
 31
0.0000
  0
LINE
  8
20
 10
-0.1375
 20
23.0000
 30
0.0000
 11
-0.1375
 21
0.0000
 31
0.0000
  0
LINE
  8
20
 10
-0.1375
 20
0.0000
 30
0.0000
 11
27.8625
 21
0.0000
 31
0.0000
  0
CIRCLE
  8
20
 10
25.3625
 20
2.5000
 30
0.0000
 40
1.0000
  0
CIRCLE
  8
20
 10
2.3625
 20
2.5000
 30
0.0000
 40
1.0000
  0
CIRCLE
  8
20
 10
2.3625
 20
20.5000
 30
0.0000
 40
1.0000
  0
CIRCLE
  8
20
 10
-4.4580
 20
2.6005
 30
0.0000
 40
1.5000
  0
CIRCLE
  8
20
 10
-4.0865
 20
21.1755
 30
0.0000
 40
1.5000
  0
CIRCLE
  8
20
 10
33.0635
 20
21.1755
 30
0.0000
 40
1.5000
  0
CIRCLE
  8
20
 10
33.0635
 20
2.6005
 30
0.0000
 40
1.5000
  0
INSERT
  8
17
  2
ROUNDP
 10
14.1785
 20
16.5057
 30
0.0000
 41
1.4224
 42
1.4224
 43
1.0000
 50
90.0000
  0
INSERT
  8
17
  2
ROUNDP
 10
14.1785
 20
16.5057
 30
0.0000
 41
1.4224
 42
1.4224
 43
1.0000
 50
90.0000
  0
INSERT
  8
17
  2
ROUNDP
 10
14.1785
 20
18.5057
 30
0.0000
 41
1.4224
 42
1.4224
 43
1.0000
 50
90.0000
  0
INSERT
  8
17
  2
ROUNDP
 10
14.1785
 20
18.5057
 30
0.0000
 41
1.4224
 42
1.4224
 43
1.0000
 50
90.0000
  0
INSERT
  8
17
  2
ROUNDP
 10
9.7385
 20
20.6291
 30
0.0000
 41
1.4224
 42
1.4224
 43
1.0000
 50
0.0000
  0
INSERT
  8
17
  2
ROUNDP
 10
9.7385
 20
20.6291
 30
0.0000
 41
1.4224
 42
1.4224
 43
1.0000
 50
0.0000
  0
INSERT
  8
17
  2
ROUNDP
 10
11.7385
 20
20.6291
 30
0.0000
 41
1.4224
 42
1.4224
 43
1.0000
 50
0.0000
  0
INSERT
  8
17
  2
ROUNDP
 10
11.7385
 20
20.6291
 30
0.0000
 41
1.4224
 42
1.4224
 43
1.0000
 50
0.0000
  0
INSERT
  8
17
  2
ROUNDP
 10
16.4325
 20
20.6291
 30
0.0000
 41
1.4224
 42
1.4224
 43
1.0000
 50
180.0000
  0
INSERT
  8
17
  2
ROUNDP
 10
16.4325
 20
20.6291
 30
0.0000
 41
1.4224
 42
1.4224
 43
1.0000
 50
180.0000
  0
INSERT
  8
17
  2
ROUNDP
 10
14.4325
 20
20.6291
 30
0.0000
 41
1.4224
 42
1.4224
 43
1.0000
 50
180.0000
  0
INSERT
  8
17
  2
ROUNDP
 10
14.4325
 20
20.6291
 30
0.0000
 41
1.4224
 42
1.4224
 43
1.0000
 50
180.0000
  0
INSERT
  8
17
  2
ROUNDP
 10
17.0365
 20
18.4139
 30
0.0000
 41
1.4224
 42
1.4224
 43
1.0000
 50
270.0000
  0
INSERT
  8
17
  2
ROUNDP
 10
17.0365
 20
18.4139
 30
0.0000
 41
1.4224
 42
1.4224
 43
1.0000
 50
270.0000
  0
INSERT
  8
17
  2
ROUNDP
 10
17.0365
 20
16.4139
 30
0.0000
 41
1.4224
 42
1.4224
 43
1.0000
 50
270.0000
  0
INSERT
  8
17
  2
ROUNDP
 10
17.0365
 20
16.4139
 30
0.0000
 41
1.4224
 42
1.4224
 43
1.0000
 50
270.0000
  0
INSERT
  8
17
  2
ROUNDP
 10
23.0686
 20
20.9539
 30
0.0000
 41
1.4224
 42
1.4224
 43
1.0000
 50
270.0000
  0
INSERT
  8
17
  2
ROUNDP
 10
23.0686
 20
20.9539
 30
0.0000
 41
1.4224
 42
1.4224
 43
1.0000
 50
270.0000
  0
INSERT
  8
17
  2
ROUNDP
 10
23.0686
 20
18.9539
 30
0.0000
 41
1.4224
 42
1.4224
 43
1.0000
 50
270.0000
  0
INSERT
  8
17
  2
ROUNDP
 10
23.0686
 20
18.9539
 30
0.0000
 41
1.4224
 42
1.4224
 43
1.0000
 50
270.0000
  0
INSERT
  8
17
  2
ROUNDP
 10
22.4326
 20
14.2837
 30
0.0000
 41
1.4224
 42
1.4224
 43
1.0000
 50
180.0000
  0
INSERT
  8
17
  2
ROUNDP
 10
22.4326
 20
14.2837
 30
0.0000
 41
1.4224
 42
1.4224
 43
1.0000
 50
180.0000
  0
INSERT
  8
17
  2
ROUNDP
 10
20.4326
 20
14.2837
 30
0.0000
 41
1.4224
 42
1.4224
 43
1.0000
 50
180.0000
  0
INSERT
  8
17
  2
ROUNDP
 10
20.4326
 20
14.2837
 30
0.0000
 41
1.4224
 42
1.4224
 43
1.0000
 50
180.0000
  0
INSERT
  8
18
  2
ROUNDV
 10
9.5776
 20
7.9342
 30
0.0000
 41
1.2700
 42
1.2700
 43
1.0000
 50
0.0000
  0
INSERT
  8
18
  2
ROUNDV
 10
2.5864
 20
15.5554
 30
0.0000
 41
1.2700
 42
1.2700
 43
1.0000
 50
0.0000
  0
INSERT
  8
18
  2
ROUNDV
 10
22.2589
 20
1.9013
 30
0.0000
 41
1.2700
 42
1.2700
 43
1.0000
 50
0.0000
  0
INSERT
  8
18
  2
ROUNDV
 10
5.9299
 20
4.4104
 30
0.0000
 41
1.2700
 42
1.2700
 43
1.0000
 50
0.0000
  0
INSERT
  8
18
  2
ROUNDV
 10
19.3039
 20
21.1279
 30
0.0000
 41
1.2700
 42
1.2700
 43
1.0000
 50
0.0000
  0
INSERT
  8
18
  2
ROUNDV
 10
5.2934
 20
18.7241
 30
0.0000
 41
1.2700
 42
1.2700
 43
1.0000
 50
0.0000
  0
INSERT
  8
18
  2
ROUNDV
 10
13.2284
 20
6.3453
 30
0.0000
 41
1.2700
 42
1.2700
 43
1.0000
 50
0.0000
  0
INSERT
  8
18
  2
ROUNDV
 10
16.4034
 20
11.4253
 30
0.0000
 41
1.2700
 42
1.2700
 43
1.0000
 50
0.0000
  0
INSERT
  8
18
  2
ROUNDV
 10
7.1985
 20
13.0091
 30
0.0000
 41
1.2700
 42
1.2700
 43
1.0000
 50
0.0000
  0
INSERT
  8
18
  2
ROUNDV
 10
8.7834
 20
10.1553
 30
0.0000
 41
1.2700
 42
1.2700
 43
1.0000
 50
0.0000
  0
INSERT
  8
18
  2
ROUNDV
 10
2.9720
 20
6.3155
 30
0.0000
 41
1.2700
 42
1.2700
 43
1.0000
 50
0.0000
  0
ENDSEC
  0
EOF
