  0
SECTION
  2
HEADER
  9
$ACADVER
  1
AC1009
  9
$FILLMODE
 70
0
  9
$EXTMIN
 10
-1.4224
 20
-6.6308
 30
0.0000
  9
$EXTMAX
 10
62.3824
 20
35.5233
 30
0.0000
  0
ENDSEC
  0
SECTION
  2
TABLES
  0
TABLE
  2
LTYPE
 70
1
  0
LTYPE
  2
CONTINUOUS
 70
64
  3
Solid line
 72
65
 73
0
 40
0
  0
ENDTAB
  0
TABLE
  2
LAYER
 70
255
  0
LAYER
  2
17
 70
64
 62
82
  6
CONTINUOUS
  0
LAYER
  2
18
 70
64
 62
82
  6
CONTINUOUS
  0
LAYER
  2
20
 70
64
 62
7
  6
CONTINUOUS
  0
LAYER
  2
44
 70
64
 62
253
  6
CONTINUOUS
  0
LAYER
  2
45
 70
64
 62
253
  6
CONTINUOUS
  0
LAYER
  2
46
 70
64
 62
140
  6
CONTINUOUS
  0
LAYER
  2
116
 70
64
 62
5
  6
CONTINUOUS
  0
ENDTAB
  0
ENDSEC
  0
SECTION
  2
BLOCKS
  0
BLOCK
  8
0
  2
RECT
 70
64
 10
0.0000
 20
0.0000
 30
0.0000
  3
RECT
  0
SOLID
  8
0
 10
-0.5000
 20
-0.5000
 30
0.0000
 11
0.5000
 21
-0.5000
 31
0.0000
 12
-0.5000
 22
0.5000
 32
0.0000
 13
0.5000
 23
0.5000
 33
0.0000
  0
ENDBLK
  8
0
  0
BLOCK
  8
0
  2
PIE
 70
64
 10
0.0000
 20
0.0000
 30
0.0000
  3
PIE
  0
CIRCLE
  8
0
 10
0.0000
 20
0.0000
 30
0.0000
 40
0.5000
  0
ENDBLK
  8
0
  0
BLOCK
  8
0
  2
OCTAGONP
 70
64
 10
0.0000
 20
0.0000
 30
0.0000
  3
OCTAGONP
  0
POLYLINE
  8
0
 66
1
 10
0.0000
 20
0.0000
 30
0.0000
 40
0.0000
 41
0.0000
 70
1
  0
VERTEX
  8
0
 10
-0.5000
 20
-0.2071
 30
0.0000
  0
VERTEX
  8
0
 10
-0.5000
 20
0.2071
 30
0.0000
  0
VERTEX
  8
0
 10
-0.2071
 20
0.5000
 30
0.0000
  0
VERTEX
  8
0
 10
0.2071
 20
0.5000
 30
0.0000
  0
VERTEX
  8
0
 10
0.5000
 20
0.2071
 30
0.0000
  0
VERTEX
  8
0
 10
0.5000
 20
-0.2071
 30
0.0000
  0
VERTEX
  8
0
 10
0.2071
 20
-0.5000
 30
0.0000
  0
VERTEX
  8
0
 10
-0.2071
 20
-0.5000
 30
0.0000
  0
SEQEND
  8
0
  0
ENDBLK
  8
0
  0
BLOCK
  8
0
  2
SQUAREP
 70
64
 10
0.0000
 20
0.0000
 30
0.0000
  3
SQUAREP
  0
SOLID
  8
0
 10
-0.5000
 20
-0.5000
 30
0.0000
 11
0.5000
 21
-0.5000
 31
0.0000
 12
-0.5000
 22
0.5000
 32
0.0000
 13
0.5000
 23
0.5000
 33
0.0000
  0
ENDBLK
  8
0
  0
BLOCK
  8
0
  2
ROUNDP
 70
64
 10
0.0000
 20
0.0000
 30
0.0000
  3
ROUNDP
  0
CIRCLE
  8
0
 10
0.0000
 20
0.0000
 30
0.0000
 40
0.5000
  0
ENDBLK
  8
0
  0
BLOCK
  8
0
  2
ANNULUSP
 70
64
 10
0.0000
 20
0.0000
 30
0.0000
  3
ANNULUSP
  0
CIRCLE
  8
0
 10
0.0000
 20
0.0000
 30
0.0000
 40
0.5000
  0
ENDBLK
  8
0
  0
BLOCK
  8
0
  2
THERMALP
 70
64
 10
0.0000
 20
0.0000
 30
0.0000
  3
THERMALP
  0
LINE
  8
0
 10
-0.2379
 20
0.4500
 30
0.0000
 11
0.2379
 21
0.4500
 31
0.0000
  0
LINE
  8
0
 10
0.4500
 20
0.2379
 30
0.0000
 11
0.4500
 21
-0.2379
 31
0.0000
  0
LINE
  8
0
 10
0.2379
 20
-0.4500
 30
0.0000
 11
-0.2379
 21
-0.4500
 31
0.0000
  0
LINE
  8
0
 10
-0.4500
 20
-0.2379
 30
0.0000
 11
-0.4500
 21
0.2379
 31
0.0000
  0
ENDBLK
  8
0
  0
BLOCK
  8
0
  2
OCTAGONV
 70
64
 10
0.0000
 20
0.0000
 30
0.0000
  3
OCTAGONV
  0
POLYLINE
  8
0
 66
1
 10
0.0000
 20
0.0000
 30
0.0000
 40
0.0000
 41
0.0000
 70
1
  0
VERTEX
  8
0
 10
-0.5000
 20
-0.2071
 30
0.0000
  0
VERTEX
  8
0
 10
-0.5000
 20
0.2071
 30
0.0000
  0
VERTEX
  8
0
 10
-0.2071
 20
0.5000
 30
0.0000
  0
VERTEX
  8
0
 10
0.2071
 20
0.5000
 30
0.0000
  0
VERTEX
  8
0
 10
0.5000
 20
0.2071
 30
0.0000
  0
VERTEX
  8
0
 10
0.5000
 20
-0.2071
 30
0.0000
  0
VERTEX
  8
0
 10
0.2071
 20
-0.5000
 30
0.0000
  0
VERTEX
  8
0
 10
-0.2071
 20
-0.5000
 30
0.0000
  0
SEQEND
  8
0
  0
ENDBLK
  8
0
  0
BLOCK
  8
0
  2
SQUAREV
 70
64
 10
0.0000
 20
0.0000
 30
0.0000
  3
SQUAREV
  0
SOLID
  8
0
 10
-0.5000
 20
-0.5000
 30
0.0000
 11
0.5000
 21
-0.5000
 31
0.0000
 12
-0.5000
 22
0.5000
 32
0.0000
 13
0.5000
 23
0.5000
 33
0.0000
  0
ENDBLK
  8
0
  0
BLOCK
  8
0
  2
ROUNDV
 70
64
 10
0.0000
 20
0.0000
 30
0.0000
  3
ROUNDV
  0
CIRCLE
  8
0
 10
0.0000
 20
0.0000
 30
0.0000
 40
0.5000
  0
ENDBLK
  8
0
  0
BLOCK
  8
0
  2
ANNULUSV
 70
64
 10
0.0000
 20
0.0000
 30
0.0000
  3
ANNULUSV
  0
CIRCLE
  8
0
 10
0.0000
 20
0.0000
 30
0.0000
 40
0.5000
  0
ENDBLK
  8
0
  0
BLOCK
  8
0
  2
THERMALV
 70
64
 10
0.0000
 20
0.0000
 30
0.0000
  3
THERMALV
  0
LINE
  8
0
 10
-0.2379
 20
0.4500
 30
0.0000
 11
0.2379
 21
0.4500
 31
0.0000
  0
LINE
  8
0
 10
0.4500
 20
0.2379
 30
0.0000
 11
0.4500
 21
-0.2379
 31
0.0000
  0
LINE
  8
0
 10
0.2379
 20
-0.4500
 30
0.0000
 11
-0.2379
 21
-0.4500
 31
0.0000
  0
LINE
  8
0
 10
-0.4500
 20
-0.2379
 30
0.0000
 11
-0.4500
 21
0.2379
 31
0.0000
  0
ENDBLK
  8
0
  0
ENDSEC
  0
SECTION
  2
ENTITIES
  0
LINE
  8
20
 10
33.0000
 20
28.0000
 30
0.0000
 11
0.0000
 21
28.0000
 31
0.0000
  0
LINE
  8
20
 10
0.0000
 20
28.0000
 30
0.0000
 11
0.0000
 21
0.0000
 31
0.0000
  0
LINE
  8
20
 10
0.0000
 20
0.0000
 30
0.0000
 11
33.0000
 21
0.0000
 31
0.0000
  0
LINE
  8
20
 10
33.0000
 20
28.0000
 30
0.0000
 11
33.0000
 21
0.0000
 31
0.0000
  0
LINE
  8
20
 10
62.0000
 20
28.0000
 30
0.0000
 11
33.0000
 21
28.0000
 31
0.0000
  0
LINE
  8
20
 10
62.0000
 20
0.0000
 30
0.0000
 11
33.0000
 21
0.0000
 31
0.0000
  0
LINE
  8
20
 10
62.0000
 20
28.0000
 30
0.0000
 11
62.0000
 21
0.0000
 31
0.0000
  0
CIRCLE
  8
116
 10
2.5000
 20
25.5000
 30
0.0000
 40
0.6120
  0
CIRCLE
  8
116
 10
59.5000
 20
25.5000
 30
0.0000
 40
0.6120
  0
CIRCLE
  8
116
 10
33.0000
 20
2.5000
 30
0.0000
 40
0.6120
  0
CIRCLE
  8
116
 10
33.0000
 20
25.5000
 30
0.0000
 40
0.6120
  0
CIRCLE
  8
116
 10
59.5000
 20
2.5000
 30
0.0000
 40
0.6120
  0
CIRCLE
  8
116
 10
2.2230
 20
-5.0800
 30
0.0000
 40
0.8630
  0
CIRCLE
  8
116
 10
59.3730
 20
-4.1280
 30
0.0000
 40
0.8630
  0
CIRCLE
  8
116
 10
2.2230
 20
33.9730
 30
0.0000
 40
0.8620
  0
CIRCLE
  8
116
 10
59.0550
 20
33.3370
 30
0.0000
 40
0.8620
  0
CIRCLE
  8
20
 10
2.5000
 20
25.5000
 30
0.0000
 40
1.0000
  0
CIRCLE
  8
20
 10
59.5000
 20
25.5000
 30
0.0000
 40
1.0000
  0
CIRCLE
  8
20
 10
33.0000
 20
2.5000
 30
0.0000
 40
1.0000
  0
CIRCLE
  8
20
 10
33.0000
 20
25.5000
 30
0.0000
 40
1.0000
  0
CIRCLE
  8
20
 10
59.5000
 20
2.5000
 30
0.0000
 40
1.0000
  0
CIRCLE
  8
20
 10
2.2230
 20
-5.0800
 30
0.0000
 40
1.5000
  0
CIRCLE
  8
20
 10
59.3730
 20
-4.1280
 30
0.0000
 40
1.5000
  0
CIRCLE
  8
20
 10
2.2225
 20
33.9725
 30
0.0000
 40
1.5000
  0
CIRCLE
  8
20
 10
59.0550
 20
33.3375
 30
0.0000
 40
1.5000
  0
INSERT
  8
17
  2
ROUNDP
 10
25.4000
 20
20.9850
 30
0.0000
 41
1.4224
 42
1.4224
 43
1.0000
 50
270.0000
  0
INSERT
  8
17
  2
ROUNDP
 10
25.4000
 20
20.9850
 30
0.0000
 41
1.4224
 42
1.4224
 43
1.0000
 50
270.0000
  0
CIRCLE
  8
44
 10
25.4000
 20
20.9850
 30
0.0000
 40
0.4000
  0
INSERT
  8
17
  2
ROUNDP
 10
25.4000
 20
18.9850
 30
0.0000
 41
1.4224
 42
1.4224
 43
1.0000
 50
270.0000
  0
INSERT
  8
17
  2
ROUNDP
 10
25.4000
 20
18.9850
 30
0.0000
 41
1.4224
 42
1.4224
 43
1.0000
 50
270.0000
  0
CIRCLE
  8
44
 10
25.4000
 20
18.9850
 30
0.0000
 40
0.4000
  0
INSERT
  8
17
  2
ROUNDP
 10
2.5400
 20
20.7550
 30
0.0000
 41
1.4224
 42
1.4224
 43
1.0000
 50
270.0000
  0
INSERT
  8
17
  2
ROUNDP
 10
2.5400
 20
20.7550
 30
0.0000
 41
1.4224
 42
1.4224
 43
1.0000
 50
270.0000
  0
CIRCLE
  8
44
 10
2.5400
 20
20.7550
 30
0.0000
 40
0.4000
  0
INSERT
  8
17
  2
ROUNDP
 10
2.5400
 20
18.7550
 30
0.0000
 41
1.4224
 42
1.4224
 43
1.0000
 50
270.0000
  0
INSERT
  8
17
  2
ROUNDP
 10
2.5400
 20
18.7550
 30
0.0000
 41
1.4224
 42
1.4224
 43
1.0000
 50
270.0000
  0
CIRCLE
  8
44
 10
2.5400
 20
18.7550
 30
0.0000
 40
0.4000
  0
INSERT
  8
17
  2
ROUNDP
 10
13.9700
 20
24.7950
 30
0.0000
 41
1.4224
 42
1.4224
 43
1.0000
 50
180.0000
  0
INSERT
  8
17
  2
ROUNDP
 10
13.9700
 20
24.7950
 30
0.0000
 41
1.4224
 42
1.4224
 43
1.0000
 50
180.0000
  0
CIRCLE
  8
44
 10
13.9700
 20
24.7950
 30
0.0000
 40
0.4000
  0
INSERT
  8
17
  2
ROUNDP
 10
11.9700
 20
24.7950
 30
0.0000
 41
1.4224
 42
1.4224
 43
1.0000
 50
180.0000
  0
INSERT
  8
17
  2
ROUNDP
 10
11.9700
 20
24.7950
 30
0.0000
 41
1.4224
 42
1.4224
 43
1.0000
 50
180.0000
  0
CIRCLE
  8
44
 10
11.9700
 20
24.7950
 30
0.0000
 40
0.4000
  0
INSERT
  8
17
  2
ROUNDP
 10
29.8460
 20
23.2074
 30
0.0000
 41
1.4224
 42
1.4224
 43
1.0000
 50
180.0000
  0
INSERT
  8
17
  2
ROUNDP
 10
29.8460
 20
23.2074
 30
0.0000
 41
1.4224
 42
1.4224
 43
1.0000
 50
180.0000
  0
CIRCLE
  8
44
 10
29.8460
 20
23.2074
 30
0.0000
 40
0.4000
  0
INSERT
  8
17
  2
ROUNDP
 10
27.8460
 20
23.2074
 30
0.0000
 41
1.4224
 42
1.4224
 43
1.0000
 50
180.0000
  0
INSERT
  8
17
  2
ROUNDP
 10
27.8460
 20
23.2074
 30
0.0000
 41
1.4224
 42
1.4224
 43
1.0000
 50
180.0000
  0
CIRCLE
  8
44
 10
27.8460
 20
23.2074
 30
0.0000
 40
0.4000
  0
CIRCLE
  8
20
 10
48.0050
 20
13.9450
 30
0.0000
 40
1.5000
  0
INSERT
  8
18
  2
ROUNDV
 10
3.1760
 20
14.3174
 30
0.0000
 41
1.2700
 42
1.2700
 43
1.0000
 50
0.0000
  0
CIRCLE
  8
44
 10
3.1760
 20
14.3174
 30
0.0000
 40
0.3000
  0
INSERT
  8
18
  2
ROUNDV
 10
27.3060
 20
17.4924
 30
0.0000
 41
1.2700
 42
1.2700
 43
1.0000
 50
0.0000
  0
CIRCLE
  8
44
 10
27.3060
 20
17.4924
 30
0.0000
 40
0.3000
  0
INSERT
  8
18
  2
ROUNDV
 10
28.9410
 20
6.0624
 30
0.0000
 41
1.2700
 42
1.2700
 43
1.0000
 50
0.0000
  0
CIRCLE
  8
44
 10
28.9410
 20
6.0624
 30
0.0000
 40
0.3000
  0
INSERT
  8
18
  2
ROUNDV
 10
3.1760
 20
6.0624
 30
0.0000
 41
1.2700
 42
1.2700
 43
1.0000
 50
0.0000
  0
CIRCLE
  8
44
 10
3.1760
 20
6.0624
 30
0.0000
 40
0.3000
  0
INSERT
  8
18
  2
ROUNDV
 10
3.1760
 20
2.2524
 30
0.0000
 41
1.2700
 42
1.2700
 43
1.0000
 50
0.0000
  0
CIRCLE
  8
44
 10
3.1760
 20
2.2524
 30
0.0000
 40
0.3000
  0
INSERT
  8
18
  2
ROUNDV
 10
22.2260
 20
18.4450
 30
0.0000
 41
1.2700
 42
1.2700
 43
1.0000
 50
0.0000
  0
CIRCLE
  8
44
 10
22.2260
 20
18.4450
 30
0.0000
 40
0.3000
  0
INSERT
  8
18
  2
ROUNDV
 10
29.8460
 20
17.8100
 30
0.0000
 41
1.2700
 42
1.2700
 43
1.0000
 50
0.0000
  0
CIRCLE
  8
44
 10
29.8460
 20
17.8100
 30
0.0000
 40
0.3000
  0
INSERT
  8
18
  2
ROUNDV
 10
29.2110
 20
12.0950
 30
0.0000
 41
1.2700
 42
1.2700
 43
1.0000
 50
0.0000
  0
CIRCLE
  8
44
 10
29.2110
 20
12.0950
 30
0.0000
 40
0.3000
  0
INSERT
  8
18
  2
ROUNDV
 10
53.3410
 20
24.7950
 30
0.0000
 41
1.2700
 42
1.2700
 43
1.0000
 50
0.0000
  0
CIRCLE
  8
44
 10
53.3410
 20
24.7950
 30
0.0000
 40
0.3000
  0
INSERT
  8
18
  2
ROUNDV
 10
41.9110
 20
24.7950
 30
0.0000
 41
1.2700
 42
1.2700
 43
1.0000
 50
0.0000
  0
CIRCLE
  8
44
 10
41.9110
 20
24.7950
 30
0.0000
 40
0.3000
  0
INSERT
  8
18
  2
ROUNDV
 10
41.9110
 20
4.4750
 30
0.0000
 41
1.2700
 42
1.2700
 43
1.0000
 50
0.0000
  0
CIRCLE
  8
44
 10
41.9110
 20
4.4750
 30
0.0000
 40
0.3000
  0
INSERT
  8
18
  2
ROUNDV
 10
53.3410
 20
4.4750
 30
0.0000
 41
1.2700
 42
1.2700
 43
1.0000
 50
0.0000
  0
CIRCLE
  8
44
 10
53.3410
 20
4.4750
 30
0.0000
 40
0.3000
  0
INSERT
  8
18
  2
ROUNDV
 10
25.4010
 20
25.4300
 30
0.0000
 41
1.2700
 42
1.2700
 43
1.0000
 50
0.0000
  0
CIRCLE
  8
44
 10
25.4010
 20
25.4300
 30
0.0000
 40
0.3000
  0
INSERT
  8
18
  2
ROUNDV
 10
30.7110
 20
2.0950
 30
0.0000
 41
1.2700
 42
1.2700
 43
1.0000
 50
0.0000
  0
CIRCLE
  8
44
 10
30.7110
 20
2.0950
 30
0.0000
 40
0.3000
  0
INSERT
  8
18
  2
ROUNDV
 10
58.4110
 20
13.7950
 30
0.0000
 41
1.2700
 42
1.2700
 43
1.0000
 50
0.0000
  0
CIRCLE
  8
44
 10
58.4110
 20
13.7950
 30
0.0000
 40
0.3000
  0
INSERT
  8
18
  2
ROUNDV
 10
36.4110
 20
17.7950
 30
0.0000
 41
1.2700
 42
1.2700
 43
1.0000
 50
0.0000
  0
CIRCLE
  8
44
 10
36.4110
 20
17.7950
 30
0.0000
 40
0.3000
  0
INSERT
  8
18
  2
ROUNDV
 10
3.1760
 20
10.5074
 30
0.0000
 41
1.2700
 42
1.2700
 43
1.0000
 50
0.0000
  0
CIRCLE
  8
44
 10
3.1760
 20
10.5074
 30
0.0000
 40
0.3000
  0
INSERT
  8
18
  2
ROUNDV
 10
3.1760
 20
12.4123
 30
0.0000
 41
1.2700
 42
1.2700
 43
1.0000
 50
0.0000
  0
CIRCLE
  8
44
 10
3.1760
 20
12.4123
 30
0.0000
 40
0.3000
  0
INSERT
  8
18
  2
ROUNDV
 10
34.9260
 20
21.3024
 30
0.0000
 41
1.2700
 42
1.2700
 43
1.0000
 50
0.0000
  0
CIRCLE
  8
44
 10
34.9260
 20
21.3024
 30
0.0000
 40
0.3000
  0
INSERT
  8
18
  2
ROUNDV
 10
34.9260
 20
19.3973
 30
0.0000
 41
1.2700
 42
1.2700
 43
1.0000
 50
0.0000
  0
CIRCLE
  8
44
 10
34.9260
 20
19.3973
 30
0.0000
 40
0.3000
  0
INSERT
  8
18
  2
ROUNDV
 10
58.4200
 20
19.7150
 30
0.0000
 41
1.2700
 42
1.2700
 43
1.0000
 50
0.0000
  0
CIRCLE
  8
44
 10
58.4200
 20
19.7150
 30
0.0000
 40
0.3000
  0
INSERT
  8
18
  2
ROUNDV
 10
58.4200
 20
10.8250
 30
0.0000
 41
1.2700
 42
1.2700
 43
1.0000
 50
0.0000
  0
CIRCLE
  8
44
 10
58.4200
 20
10.8250
 30
0.0000
 40
0.3000
  0
INSERT
  8
18
  2
ROUNDV
 10
38.1000
 20
10.8250
 30
0.0000
 41
1.2700
 42
1.2700
 43
1.0000
 50
0.0000
  0
CIRCLE
  8
44
 10
38.1000
 20
10.8250
 30
0.0000
 40
0.3000
  0
INSERT
  8
18
  2
ROUNDV
 10
16.5100
 20
24.7950
 30
0.0000
 41
1.2700
 42
1.2700
 43
1.0000
 50
0.0000
  0
CIRCLE
  8
44
 10
16.5100
 20
24.7950
 30
0.0000
 40
0.3000
  0
INSERT
  8
18
  2
ROUNDV
 10
58.4200
 20
8.9200
 30
0.0000
 41
1.2700
 42
1.2700
 43
1.0000
 50
0.0000
  0
CIRCLE
  8
44
 10
58.4200
 20
8.9200
 30
0.0000
 40
0.3000
  0
INSERT
  8
18
  2
ROUNDV
 10
29.0760
 20
7.9674
 30
0.0000
 41
1.2700
 42
1.2700
 43
1.0000
 50
0.0000
  0
CIRCLE
  8
44
 10
29.0760
 20
7.9674
 30
0.0000
 40
0.3000
  0
INSERT
  8
18
  2
ROUNDV
 10
34.9260
 20
16.2224
 30
0.0000
 41
1.2700
 42
1.2700
 43
1.0000
 50
0.0000
  0
CIRCLE
  8
44
 10
34.9260
 20
16.2224
 30
0.0000
 40
0.3000
  0
INSERT
  8
18
  2
ROUNDV
 10
38.1010
 20
7.3323
 30
0.0000
 41
1.2700
 42
1.2700
 43
1.0000
 50
0.0000
  0
CIRCLE
  8
44
 10
38.1010
 20
7.3323
 30
0.0000
 40
0.3000
  0
INSERT
  8
18
  2
ROUNDV
 10
3.1760
 20
8.6024
 30
0.0000
 41
1.2700
 42
1.2700
 43
1.0000
 50
0.0000
  0
CIRCLE
  8
44
 10
3.1760
 20
8.6024
 30
0.0000
 40
0.3000
  0
INSERT
  8
18
  2
ROUNDV
 10
36.1960
 20
12.4123
 30
0.0000
 41
1.2700
 42
1.2700
 43
1.0000
 50
0.0000
  0
CIRCLE
  8
44
 10
36.1960
 20
12.4123
 30
0.0000
 40
0.3000
  0
INSERT
  8
18
  2
ROUNDV
 10
38.1010
 20
9.2374
 30
0.0000
 41
1.2700
 42
1.2700
 43
1.0000
 50
0.0000
  0
CIRCLE
  8
44
 10
38.1010
 20
9.2374
 30
0.0000
 40
0.3000
  0
ENDSEC
  0
EOF
